Coordinates
version=1
nRows=24
nColumns=19
inDegrees=yes

Units are S.I. units (second, meters, Newtons, ...)
If the header above contains a line with 'inDegrees', this indicates whether rotational values are in degrees (yes) or radians (no).

endheader
time	pelvis_tilt	pelvis_list	pelvis_rotation	pelvis_tx	pelvis_ty	pelvis_tz	hip_flexion_r	hip_adduction_r	hip_rotation_r	knee_angle_r	knee_angle_r_beta	ankle_angle_r	hip_flexion_l	hip_adduction_l	hip_rotation_l	knee_angle_l	knee_angle_l_beta	ankle_angle_l
     13.24666667	    -11.97419896	      5.39459015	      4.33319056	      2.21724805	      1.06137314	      0.97972086	     -5.12137695	    -12.83308662	    -14.24342596	     79.66608211	      1.39043543	    -27.52829551	     33.55792266	      8.86614003	    -12.68409856	     10.64820985	      0.18584632	     -2.16697282
     13.25333333	    -12.29658991	      5.73336190	      4.60381315	      2.21591571	      1.05621916	      0.97991750	     -3.16703202	    -13.37460275	    -13.64784126	     83.83031645	      1.46311504	    -27.41726482	     34.09766818	      9.00835722	    -13.43610049	     13.04071963	      0.22760349	     -1.74737628
     13.26000000	    -12.74132111	      6.03591657	      4.90912082	      2.21437539	      1.05069570	      0.98022151	     -0.97739385	    -13.89146123	    -13.05001284	     87.90864341	      1.53429527	    -27.26403101	     34.91254692	      9.04155862	    -14.18654419	     16.04426977	      0.28002533	     -0.94426820
     13.26666667	    -13.27397357	      6.26224873	      5.23261793	      2.21263307	      1.04490086	      0.98064259	      1.43280164	    -14.33949668	    -12.42724218	     91.87655472	      1.60354839	    -27.15561245	     35.89306377	      8.95536011	    -14.80950382	     19.45909057	      0.33962520	      0.19080230
     13.27333333	    -13.85858321	      6.41879129	      5.52747318	      2.21069737	      1.03898801	      0.98116239	      4.04976741	    -14.71211880	    -11.72090867	     95.70936551	      1.67044355	    -27.11092691	     36.92759809	      8.77648091	    -15.23175871	     23.08685068	      0.40294156	      1.67853703
     13.28000000	    -14.40404361	      6.47632058	      5.77525508	      2.20854769	      1.03320454	      0.98182327	      6.79025989	    -14.95435776	    -10.92772862	     99.36492621	      1.73424512	    -27.19592675	     37.85604908	      8.51164048	    -15.38644494	     26.74072333	      0.46671367	      3.50081237
     13.28666667	    -14.95469794	      6.47236947	      5.96295242	      2.20618983	      1.02760332	      0.98248740	      9.71947360	    -15.11842491	    -10.03163619	    102.83301123	      1.79477463	    -27.40086773	     38.67066644	      8.23281831	    -15.27676797	     30.27376982	      0.52837696	      5.60007544
     13.29333333	    -15.28778054	      6.49397122	      6.08647352	      2.20368460	      1.02265052	      0.98324308	     12.55522370	    -15.26153576	     -9.05391505	    106.06409721	      1.85116771	    -27.43457042	     39.04798971	      8.01058257	    -15.02199426	     33.48998092	      0.58451043	      7.86690486
     13.30000000	    -16.02571072	      6.32004741	      6.14718481	      2.20080256	      1.01766145	      0.98389402	     16.10049880	    -15.20060239	     -7.95146030	    109.07681790	      1.90374961	    -27.94942231	     39.68743231	      7.70258577	    -14.51108437	     36.38457102	      0.63503056	     10.20144398
     13.30666667	    -16.58226812	      6.22627938	      6.14144050	      2.19793470	      1.01357689	      0.98449816	     19.57019388	    -15.19356536	     -6.79784065	    111.76521655	      1.95067102	    -28.42852304	     39.81609620	      7.53446332	    -13.89865848	     38.72177279	      0.67582243	     12.61277075
     13.31333333	    -17.01099714	      6.11075661	      6.00868769	      2.19505487	      1.01034912	      0.98518561	     23.05298242	    -15.06634784	     -5.56811743	    114.10486332	      1.99150556	    -28.86179288	     39.53936915	      7.30431234	    -13.36834046	     40.59701446	      0.70855157	     14.95491817
     13.32000000	    -17.29974790	      6.02725389	      5.72016954	      2.19230622	      1.00813242	      0.98592260	     26.51100790	    -14.85071075	     -4.23504036	    116.05512035	      2.02554396	    -29.29809465	     38.78446399	      7.06567720	    -12.92546303	     41.89583746	      0.73122031	     17.20459309
     13.32666667	    -17.18220285	      6.01023220	      5.29062550	      2.19008521	      1.00739276	      0.98674881	     29.52673491	    -14.55116379	     -2.90234424	    117.51876861	      2.05108945	    -29.65611146	     37.22524249	      6.82485688	    -12.61408669	     42.57244204	      0.74302928	     19.19456439
     13.33333333	    -17.08996842	      5.93510321	      4.80601979	      2.18826372	      1.00745023	      0.98748896	     32.54920138	    -14.11780225	     -1.67109553	    118.53415842	      2.06881134	    -29.92904729	     35.39340295	      6.55785322	    -12.31769627	     42.72417291	      0.74567749	     20.92979236
     13.34000000	    -16.89738664	      5.82157678	      4.19808689	      2.18699870	      1.00853057	      0.98819128	     35.39403110	    -13.51298643	     -0.50998549	    119.07393173	      2.07823216	    -30.10137184	     33.15438384	      6.21433963	    -12.18926435	     42.35305035	      0.73920018	     22.27919723
     13.34666667	    -16.64681187	      5.74736641	      3.45129745	      2.18618282	      1.01038829	      0.98887055	     38.09542267	    -12.82176796	      0.63404667	    119.21298733	      2.08065914	    -30.10081103	     30.57359795	      5.89989595	    -12.23769585	     41.46524112	      0.72370498	     23.18481116
     13.35333333	    -16.36878847	      5.80175245	      2.50776839	      2.18582366	      1.01288319	      0.98958845	     40.69590758	    -12.10305724	      1.86853979	    119.01216021	      2.07715405	    -29.89000252	     27.70288861	      5.70196905	    -12.56914357	     40.07044580	      0.69936121	     23.51294473
     13.36000000	    -16.09579131	      5.74367476	      1.61913802	      2.18586702	      1.01584371	      0.99000502	     43.07584404	    -11.27970895	      2.82052721	    118.42501802	      2.06690648	    -29.53201344	     24.69887234	      5.52314684	    -12.83150201	     38.38264520	      0.66990353	     23.43965465
     13.36666667	    -15.66736635	      5.67901640	      0.64390058	      2.18666388	      1.01968227	      0.99031703	     45.03517722	    -10.40440959	      3.63626159	    117.41745562	      2.04932120	    -28.98498357	     21.30610232	      5.43418844	    -13.16456119	     36.22096080	      0.63217502	     22.69743357
     13.37333333	    -15.02297808	      5.37579730	     -0.20043314	      2.18813801	      1.02445255	      0.99022701	     46.38120739	     -9.51064174	      3.94013070	    115.95898497	      2.02386608	    -28.25188094	     17.55576501	      5.26817786	    -13.30711482	     33.76072395	      0.58923579	     21.32811156
     13.38000000	    -14.76393332	      5.04815654	     -1.03670089	      2.18978589	      1.02888353	      0.99009167	     47.97743626	     -8.55321329	      4.15894514	    114.25865740	      1.99418977	    -27.42010600	     14.20338327	      5.14392828	    -13.48204874	     31.17972286	      0.54418882	     19.36391016
     13.38666667	    -14.91991042	      4.68799967	     -1.80693682	      2.19151067	      1.03297045	      0.98979963	     49.84811892	     -7.61319887	      4.20937861	    112.31742603	      1.96030889	    -26.57001428	     11.32579143	      5.04526220	    -13.62281721	     28.53098972	      0.49795971	     16.77646300
     13.39333333	    -14.75827451	      4.09497042	     -2.41608387	      2.19385924	      1.03787896	      0.98925110	     50.98743362	     -6.75444308	      3.75456901	    110.00166900	      1.91989131	    -25.50075227	      8.08002180	      4.78386102	    -13.61357361	     25.76029227	      0.44960192	     13.63335134
     13.40000000	    -15.02706636	      3.53250872	     -2.94315639	      2.19610330	      1.04221737	      0.98862721	     52.46217010	     -5.98242645	      3.19485402	    107.51059232	      1.87641382	    -24.45429020	      5.42225978	      4.53386002	    -13.63062558	     23.09230060	      0.40303668	      9.98734883
